<svg width="16" height="16" viewBox="0 0 16 16" fill="none" xmlns="http://www.w3.org/2000/svg">
<path d="M6.67143 6.075L10.0714 8.00714L6.67143 9.93929V6.075ZM16 1.71429V14.2857C16 15.2321 15.2321 16 14.2857 16H1.71429C0.767857 16 0 15.2321 0 14.2857V1.71429C0 0.767857 0.767857 0 1.71429 0H14.2857C15.2321 0 16 0.767857 16 1.71429ZM14.5 8.01071C14.5 8.01071 14.5 5.88214 14.2286 4.86071C14.0786 4.29643 13.6393 3.85357 13.0786 3.70357C12.0679 3.42857 8 3.42857 8 3.42857C8 3.42857 3.93214 3.42857 2.92143 3.70357C2.36071 3.85357 1.92143 4.29643 1.77143 4.86071C1.5 5.87857 1.5 8.01071 1.5 8.01071C1.5 8.01071 1.5 10.1393 1.77143 11.1607C1.92143 11.725 2.36071 12.15 2.92143 12.3C3.93214 12.5714 8 12.5714 8 12.5714C8 12.5714 12.0679 12.5714 13.0786 12.2964C13.6393 12.1464 14.0786 11.7214 14.2286 11.1571C14.5 10.1393 14.5 8.01071 14.5 8.01071Z" fill="white"/>
</svg>
